<?xml version="1.0" encoding="UTF-8" standalone="no"?>
<!-- Created with Inkscape (http://www.inkscape.org/) -->

<svg
   width="359.83212"
   height="66.374664"
   viewBox="0 0 95.205579 17.561629"
   version="1.1"
   id="svg19182"
   inkscape:version="1.1 (1:1.1+202105261517+ce6663b3b7)"
   sodipodi:docname="logo.svg"
   xmlns:inkscape="http://www.inkscape.org/namespaces/inkscape"
   xmlns:sodipodi="http://sodipodi.sourceforge.net/DTD/sodipodi-0.dtd"
   xmlns="http://www.w3.org/2000/svg"
   xmlns:svg="http://www.w3.org/2000/svg">
  <sodipodi:namedview
     id="namedview19184"
     pagecolor="#ffffff"
     bordercolor="#666666"
     borderopacity="1.0"
     inkscape:pageshadow="2"
     inkscape:pageopacity="0.0"
     inkscape:pagecheckerboard="0"
     inkscape:document-units="px"
     showgrid="false"
     inkscape:zoom="0.59152637"
     inkscape:cx="453.91044"
     inkscape:cy="-44.799355"
     inkscape:window-width="1528"
     inkscape:window-height="836"
     inkscape:window-x="72"
     inkscape:window-y="27"
     inkscape:window-maximized="1"
     inkscape:current-layer="layer1"
     units="px"
     fit-margin-top="0"
     fit-margin-left="0"
     fit-margin-right="0"
     fit-margin-bottom="0" />
  <defs
     id="defs19179">
    <clipPath
       clipPathUnits="userSpaceOnUse"
       id="clipPath364">
      <path
         d="M 0,1176.384 H 1280 V 0 H 0 Z"
         id="path362" />
    </clipPath>
    <clipPath
       clipPathUnits="userSpaceOnUse"
       id="clipPath364-3">
      <path
         d="M 0,1176.384 H 1280 V 0 H 0 Z"
         id="path362-6" />
    </clipPath>
  </defs>
  <g
     inkscape:label="Layer 1"
     inkscape:groupmode="layer"
     id="layer1"
     transform="translate(15.24023,-160.32254)">
    <g
       id="g254"
       transform="matrix(0.35277776,0,0,-0.35277776,43.411437,167.33696)">
      <path
         d="M 0,0 C 2.394,0 4.144,1.805 4.144,4.217 4.144,6.611 2.394,8.416 0,8.416 H -2.101 V 0 Z m -4.476,10.294 c 0,0.185 0.148,0.351 0.332,0.351 H 0.22 c 3.554,0 6.464,-2.892 6.464,-6.428 0,-3.572 -2.91,-6.464 -6.464,-6.464 h -4.364 c -0.184,0 -0.332,0.166 -0.332,0.35 z"
         style="fill:#ffffff;fill-opacity:1;fill-rule:nonzero;stroke:none"
         id="path256" />
    </g>
    <g
       id="g258"
       transform="matrix(0.35277776,0,0,-0.35277776,48.480888,165.65439)">
      <path
         d="M 0,0 C 0.976,0 1.823,0.848 1.823,1.878 1.823,2.854 0.976,3.665 0,3.665 H -3.002 V 0 Z m -5.414,5.525 c 0,0.184 0.147,0.35 0.35,0.35 h 5.267 c 2.209,0 4.014,-1.768 4.014,-3.959 0,-1.695 -1.123,-3.076 -2.726,-3.721 l 2.524,-4.677 c 0.129,-0.24 0,-0.534 -0.313,-0.534 H 1.768 c -0.166,0 -0.258,0.092 -0.295,0.165 l -2.449,4.88 h -2.045 v -4.696 c 0,-0.184 -0.166,-0.349 -0.349,-0.349 h -1.694 c -0.203,0 -0.35,0.165 -0.35,0.349 z"
         style="fill:#ffffff;fill-opacity:1;fill-rule:nonzero;stroke:none"
         id="path260" />
    </g>
    <g
       id="g262"
       transform="matrix(0.35277776,0,0,-0.35277776,50.830776,163.70529)">
      <path
         d="m 0,0 c 0,0.184 0.167,0.35 0.351,0.35 h 1.712 c 0.184,0 0.35,-0.166 0.35,-0.35 v -12.191 c 0,-0.184 -0.166,-0.35 -0.35,-0.35 H 0.351 c -0.184,0 -0.351,0.166 -0.351,0.35 z"
         style="fill:#ffffff;fill-opacity:1;fill-rule:nonzero;stroke:none"
         id="path264" />
    </g>
    <g
       id="g266"
       transform="matrix(0.35277776,0,0,-0.35277776,52.779344,163.63382)">
      <path
         d="m 0,0 c 0,0.184 0.167,0.332 0.351,0.332 h 0.461 l 7.66,-8.14 h 0.019 v 7.605 c 0,0.184 0.148,0.35 0.35,0.35 h 1.693 c 0.185,0 0.351,-0.166 0.351,-0.35 v -12.394 c 0,-0.184 -0.166,-0.331 -0.351,-0.331 H 10.093 L 2.395,-4.475 H 2.377 v -7.919 c 0,-0.184 -0.148,-0.35 -0.351,-0.35 H 0.351 c -0.184,0 -0.351,0.166 -0.351,0.35 z"
         style="fill:#ffffff;fill-opacity:1;fill-rule:nonzero;stroke:none"
         id="path268" />
    </g>
    <g
       id="g270"
       transform="matrix(0.35277776,0,0,-0.35277776,57.725465,163.73768)">
      <path
         d="M 0,0 C 0,0.239 0.185,0.442 0.442,0.442 H 2.063 C 2.303,0.442 2.505,0.239 2.505,0 v -4.973 l 4.641,5.23 C 7.22,0.35 7.33,0.442 7.495,0.442 h 1.843 c 0.35,0 0.533,-0.387 0.295,-0.663 l -4.808,-5.415 5.157,-6.169 c 0.184,-0.239 0.037,-0.644 -0.332,-0.644 H 7.643 c -0.184,0 -0.294,0.074 -0.331,0.129 l -4.807,5.929 v -5.617 c 0,-0.239 -0.202,-0.441 -0.442,-0.441 H 0.442 C 0.185,-12.449 0,-12.247 0,-12.008 Z"
         style="fill:#ffffff;fill-opacity:1;fill-rule:nonzero;stroke:none"
         id="path272" />
    </g>
    <g
       id="g274"
       transform="matrix(0.35277776,0,0,-0.35277776,61.617027,163.73768)">
      <path
         d="m 0,0 c -0.074,0.257 0.073,0.442 0.332,0.442 h 1.693 c 0.148,0 0.295,-0.13 0.332,-0.258 l 1.915,-7.348 h 0.074 l 2.928,7.587 c 0.037,0.111 0.129,0.203 0.313,0.203 h 0.332 c 0.184,0 0.275,-0.092 0.312,-0.203 l 2.948,-7.587 h 0.073 l 1.878,7.348 c 0.037,0.128 0.184,0.258 0.332,0.258 h 1.693 c 0.259,0 0.407,-0.185 0.332,-0.442 l -3.479,-12.375 c -0.037,-0.148 -0.185,-0.259 -0.332,-0.259 h -0.295 c -0.166,0 -0.277,0.092 -0.313,0.203 L 7.771,-4.088 H 7.68 L 4.42,-12.431 C 4.364,-12.542 4.291,-12.634 4.106,-12.634 H 3.812 c -0.148,0 -0.295,0.111 -0.332,0.259 z"
         style="fill:#ffffff;fill-opacity:1;fill-rule:nonzero;stroke:none"
         id="path276" />
    </g>
    <g
       id="g278"
       transform="matrix(0.35277776,0,0,-0.35277776,69.755716,166.5768)">
      <path
         d="M 0,0 -1.843,4.051 H -1.897 L -3.703,0 Z m -7.957,-3.923 5.728,12.394 c 0.055,0.111 0.147,0.203 0.313,0.203 h 0.184 c 0.184,0 0.258,-0.092 0.313,-0.203 L 4.253,-3.923 C 4.363,-4.162 4.216,-4.401 3.94,-4.401 H 2.338 c -0.276,0 -0.405,0.11 -0.534,0.367 l -0.903,1.99 h -5.506 l -0.902,-1.99 c -0.074,-0.183 -0.24,-0.367 -0.534,-0.367 h -1.603 c -0.276,0 -0.423,0.239 -0.313,0.478"
         style="fill:#ffffff;fill-opacity:1;fill-rule:nonzero;stroke:none"
         id="path280" />
    </g>
    <g
       id="g282"
       transform="matrix(0.35277776,0,0,-0.35277776,73.71106,165.65439)">
      <path
         d="M 0,0 C 0.976,0 1.823,0.848 1.823,1.878 1.823,2.854 0.976,3.665 0,3.665 H -3.002 V 0 Z m -5.415,5.525 c 0,0.184 0.147,0.35 0.352,0.35 h 5.265 c 2.21,0 4.016,-1.768 4.016,-3.959 0,-1.695 -1.124,-3.076 -2.726,-3.721 l 2.523,-4.677 c 0.129,-0.24 0,-0.534 -0.314,-0.534 H 1.768 c -0.165,0 -0.258,0.092 -0.295,0.165 l -2.45,4.88 h -2.044 v -4.696 c 0,-0.184 -0.165,-0.349 -0.349,-0.349 h -1.693 c -0.205,0 -0.352,0.165 -0.352,0.349 z"
         style="fill:#ffffff;fill-opacity:1;fill-rule:nonzero;stroke:none"
         id="path284" />
    </g>
    <g
       id="g286"
       transform="matrix(0.35277776,0,0,-0.35277776,76.0613,163.70529)">
      <path
         d="M 0,0 C 0,0.184 0.147,0.35 0.35,0.35 H 7.845 C 8.048,0.35 8.194,0.184 8.194,0 v -1.51 c 0,-0.184 -0.146,-0.35 -0.349,-0.35 H 2.394 v -3.02 h 4.548 c 0.185,0 0.351,-0.166 0.351,-0.35 v -1.529 c 0,-0.202 -0.166,-0.349 -0.351,-0.349 H 2.394 v -3.224 h 5.451 c 0.203,0 0.349,-0.165 0.349,-0.349 v -1.51 c 0,-0.184 -0.146,-0.35 -0.349,-0.35 H 0.35 c -0.203,0 -0.35,0.166 -0.35,0.35 z"
         style="fill:#ffffff;fill-opacity:1;fill-rule:nonzero;stroke:none"
         id="path288" />
    </g>
    <g
       id="g290"
       transform="matrix(0.35277776,0,0,-0.35277776,43.846553,170.01225)">
      <path
         d="m 0,0 c 1.859,0 3.204,-0.589 4.456,-1.712 0.166,-0.148 0.166,-0.369 0.02,-0.516 l -1.124,-1.16 c -0.129,-0.148 -0.314,-0.148 -0.461,0 -0.773,0.68 -1.804,1.086 -2.836,1.086 -2.358,0 -4.107,-1.97 -4.107,-4.291 0,-2.302 1.768,-4.254 4.125,-4.254 1.106,0 2.045,0.423 2.818,1.05 0.147,0.129 0.35,0.11 0.461,0 l 1.141,-1.179 C 4.641,-11.104 4.604,-11.344 4.476,-11.473 3.223,-12.689 1.639,-13.26 0,-13.26 c -3.684,0 -6.648,2.928 -6.648,6.612 C -6.648,-2.965 -3.684,0 0,0"
         style="fill:#ffffff;fill-opacity:1;fill-rule:nonzero;stroke:none"
         id="path292" />
    </g>
    <g
       id="g294"
       transform="matrix(0.35277776,0,0,-0.35277776,48.09435,173.84543)">
      <path
         d="M 0,0 C 2.32,0 4.235,1.897 4.235,4.217 4.235,6.538 2.32,8.472 0,8.472 -2.321,8.472 -4.217,6.538 -4.217,4.217 -4.217,1.897 -2.321,0 0,0 m 0,10.866 c 3.683,0 6.63,-2.965 6.63,-6.649 0,-3.683 -2.947,-6.611 -6.63,-6.611 -3.683,0 -6.611,2.928 -6.611,6.611 0,3.684 2.928,6.649 6.611,6.649"
         style="fill:#ffffff;fill-opacity:1;fill-rule:nonzero;stroke:none"
         id="path296" />
    </g>
    <g
       id="g298"
       transform="matrix(0.35277776,0,0,-0.35277776,51.234213,170.20071)">
      <path
         d="m 0,0 c 0,0.184 0.147,0.35 0.351,0.35 h 1.694 c 0.184,0 0.35,-0.166 0.35,-0.35 v -10.332 h 4.696 c 0.202,0 0.349,-0.165 0.349,-0.349 v -1.51 c 0,-0.184 -0.147,-0.35 -0.349,-0.35 h -6.74 c -0.204,0 -0.351,0.166 -0.351,0.35 z"
         style="fill:#ffffff;fill-opacity:1;fill-rule:nonzero;stroke:none"
         id="path300" />
    </g>
    <g
       id="g302"
       transform="matrix(0.35277776,0,0,-0.35277776,54.426075,170.20071)">
      <path
         d="M 0,0 C 0,0.184 0.147,0.35 0.35,0.35 H 2.045 C 2.228,0.35 2.395,0.184 2.395,0 V -10.332 H 7.09 c 0.203,0 0.35,-0.165 0.35,-0.349 v -1.51 c 0,-0.184 -0.147,-0.35 -0.35,-0.35 H 0.35 c -0.203,0 -0.35,0.166 -0.35,0.35 z"
         style="fill:#ffffff;fill-opacity:1;fill-rule:nonzero;stroke:none"
         id="path304" />
    </g>
    <g
       id="g306"
       transform="matrix(0.35277776,0,0,-0.35277776,57.617621,170.20071)">
      <path
         d="M 0,0 C 0,0.184 0.147,0.35 0.351,0.35 H 7.846 C 8.048,0.35 8.195,0.184 8.195,0 v -1.51 c 0,-0.184 -0.147,-0.35 -0.349,-0.35 H 2.395 v -3.02 h 4.548 c 0.185,0 0.35,-0.166 0.35,-0.35 v -1.529 c 0,-0.202 -0.165,-0.349 -0.35,-0.349 H 2.395 v -3.224 h 5.451 c 0.202,0 0.349,-0.165 0.349,-0.349 v -1.51 c 0,-0.184 -0.147,-0.35 -0.349,-0.35 H 0.351 c -0.204,0 -0.351,0.166 -0.351,0.35 z"
         style="fill:#ffffff;fill-opacity:1;fill-rule:nonzero;stroke:none"
         id="path308" />
    </g>
    <g
       id="g310"
       transform="matrix(0.35277776,0,0,-0.35277776,63.332338,170.01225)">
      <path
         d="M 0,0 C 1.859,0 3.204,-0.589 4.456,-1.712 4.622,-1.86 4.622,-2.081 4.475,-2.228 l -1.123,-1.16 c -0.129,-0.148 -0.314,-0.148 -0.461,0 -0.773,0.68 -1.804,1.086 -2.836,1.086 -2.358,0 -4.108,-1.97 -4.108,-4.291 0,-2.302 1.769,-4.254 4.126,-4.254 1.106,0 2.045,0.423 2.818,1.05 0.147,0.129 0.349,0.11 0.461,0 l 1.141,-1.179 C 4.641,-11.104 4.604,-11.344 4.475,-11.473 3.223,-12.689 1.639,-13.26 0,-13.26 c -3.684,0 -6.648,2.928 -6.648,6.612 C -6.648,-2.965 -3.684,0 0,0"
         style="fill:#ffffff;fill-opacity:1;fill-rule:nonzero;stroke:none"
         id="path312" />
    </g>
    <g
       id="g314"
       transform="matrix(0.35277776,0,0,-0.35277776,66.464299,170.8568)">
      <path
         d="m 0,0 h -2.817 c -0.203,0 -0.35,0.166 -0.35,0.35 v 1.51 c 0,0.184 0.147,0.35 0.35,0.35 h 8.048 c 0.203,0 0.35,-0.166 0.35,-0.35 V 0.35 C 5.581,0.166 5.434,0 5.231,0 H 2.413 v -10.332 c 0,-0.184 -0.166,-0.349 -0.35,-0.349 H 0.351 C 0.167,-10.681 0,-10.516 0,-10.332 Z"
         style="fill:#ffffff;fill-opacity:1;fill-rule:nonzero;stroke:none"
         id="path316" />
    </g>
    <g
       id="g318"
       transform="matrix(0.35277776,0,0,-0.35277776,69.009873,170.20071)">
      <path
         d="M 0,0 C 0,0.184 0.166,0.35 0.35,0.35 H 2.063 C 2.247,0.35 2.412,0.184 2.412,0 v -12.191 c 0,-0.184 -0.165,-0.35 -0.349,-0.35 H 0.35 c -0.184,0 -0.35,0.166 -0.35,0.35 z"
         style="fill:#ffffff;fill-opacity:1;fill-rule:nonzero;stroke:none"
         id="path320" />
    </g>
    <g
       id="g322"
       transform="matrix(0.35277776,0,0,-0.35277776,72.985502,173.84543)">
      <path
         d="M 0,0 C 2.32,0 4.235,1.897 4.235,4.217 4.235,6.538 2.32,8.472 0,8.472 -2.32,8.472 -4.218,6.538 -4.218,4.217 -4.218,1.897 -2.32,0 0,0 m 0,10.866 c 3.684,0 6.629,-2.965 6.629,-6.649 0,-3.683 -2.945,-6.611 -6.629,-6.611 -3.684,0 -6.611,2.928 -6.611,6.611 0,3.684 2.927,6.649 6.611,6.649"
         style="fill:#ffffff;fill-opacity:1;fill-rule:nonzero;stroke:none"
         id="path324" />
    </g>
    <g
       id="g326"
       transform="matrix(0.35277776,0,0,-0.35277776,76.125365,170.1292)">
      <path
         d="m 0,0 c 0,0.184 0.166,0.332 0.351,0.332 h 0.46 l 7.661,-8.14 H 8.49 v 7.605 c 0,0.184 0.148,0.35 0.35,0.35 h 1.694 c 0.184,0 0.351,-0.166 0.351,-0.35 v -12.393 c 0,-0.185 -0.167,-0.332 -0.351,-0.332 H 10.093 L 2.394,-4.475 H 2.376 v -7.919 c 0,-0.184 -0.147,-0.35 -0.35,-0.35 H 0.351 c -0.185,0 -0.351,0.166 -0.351,0.35 z"
         style="fill:#ffffff;fill-opacity:1;fill-rule:nonzero;stroke:none"
         id="path328" />
    </g>
    <g
       id="g358"
       transform="matrix(0.35277776,0,0,-0.35277776,-50.794407,554.61907)">
      <g
         id="g360"
         clip-path="url(#clipPath364-3)">
        <g
           id="g366"
           transform="translate(141.5715,1097.855)">
          <path
             d="M 0,0 C 3.414,0.085 6.108,2.922 6.023,6.324 5.937,9.729 3.104,12.423 -0.31,12.337 -3.715,12.251 -6.42,9.42 -6.335,6.013 -6.249,2.613 -3.405,-0.085 0,0 M -0.263,19.83 C 7.299,20.021 13.566,14.063 13.756,6.515 13.946,-1.043 7.984,-7.312 0.422,-7.502 -7.132,-7.691 -13.4,-1.729 -13.59,5.828 c -0.189,7.547 5.774,13.814 13.327,14.002 m 7.349,-47.409 c 1.766,0 3.196,1.432 3.196,3.197 0,1.766 -1.43,3.2 -3.196,3.2 -1.765,0 -3.198,-1.434 -3.198,-3.2 0,-1.765 1.433,-3.197 3.198,-3.197 m -0.013,8.737 c 3.067,0 5.553,-2.483 5.553,-5.549 0,-3.069 -2.486,-5.554 -5.553,-5.554 -3.065,0 -5.552,2.485 -5.552,5.554 0,3.066 2.487,5.549 5.552,5.549 m 51.55,-2.215 v 2.052 l -7.806,-0.007 v -10.751 h 8.018 v 2.049 h -5.584 v 2.377 h 4.567 v 1.993 h -4.567 v 2.287 z m -17.184,-6.657 v 2.374 h 4.569 v 1.99 h -4.569 v 2.293 h 5.372 v 2.052 l -7.806,-0.003 v -10.755 h 8.017 v 2.049 z m -13.905,-2.052 h 2.434 v 4.426 h 4.568 v 1.996 h -4.568 v 2.289 h 5.507 v 2.05 l -7.941,-0.007 z m -30.111,3.655 c -0.571,-0.893 -1.571,-1.485 -2.71,-1.485 -1.774,0 -3.21,1.436 -3.21,3.209 0,1.773 1.436,3.211 3.21,3.211 0.992,0 1.879,-0.449 2.466,-1.158 l 1.666,1.661 c -1.019,1.13 -2.491,1.842 -4.132,1.842 -3.069,0 -5.554,-2.488 -5.554,-5.556 0,-3.068 2.485,-5.554 5.554,-5.554 1.774,0 3.357,0.864 4.373,2.162 z m 18.665,-3.655 h 2.433 v 4.426 h 4.571 v 1.997 h -4.571 v 2.288 h 5.509 v 2.05 H 16.088 Z M 78.238,3.215 75.827,13.434 H 74.679 L 72.251,3.215 Z M 88.56,-6.884 H 80.645 L 79.58,-2.37 h -8.647 l -1.072,-4.514 h -7.896 l 8.301,26.213 h 9.991 z M -40.788,6.18 c 0,-7.551 6.117,-13.662 13.674,-13.662 3.762,0 7.166,1.512 9.639,3.961 l -5.304,5.298 c -1.117,-1.095 -2.647,-1.772 -4.335,-1.772 -3.406,0 -6.181,2.766 -6.181,6.171 0,3.408 2.775,6.17 6.181,6.17 1.688,0 3.218,-0.676 4.335,-1.77 l 5.304,5.299 c -2.473,2.447 -5.877,3.961 -9.639,3.961 -7.557,0 -13.674,-6.105 -13.674,-13.656 M 53.219,-6.884 v 19.526 h 5.976 v 6.689 H 39.511 V 12.642 H 45.43 V -6.884 Z M 24.652,19.329 h 9.712 c -3.323,-1.549 -5.6,-4.763 -5.283,-8.378 0.466,-5.292 5.283,-7.342 5.283,-13.58 0,-4.156 -2.695,-7.805 -5.669,-9.384 l -8.838,2.437 c 3.055,1.429 5.078,4.388 4.945,7.618 -0.204,5.022 -4.945,7.323 -4.945,13.01 0,3.855 2.141,6.945 4.795,8.277"
             style="fill:#f5f3ef;fill-opacity:1;fill-rule:nonzero;stroke:none"
             id="path368" />
        </g>
      </g>
    </g>
  </g>
</svg>
