<svg width="32" height="32" xmlns="http://www.w3.org/2000/svg">

 <g>
  <title>background</title>
  <rect fill="none" id="canvas_background" height="34" width="34" y="-1" x="-1"/>
 </g>
 <g>
  <title>Layer 1</title>
  <g transform="matrix(0.1819731445951593,0,0,0.1819731445951593,0.5369833484104447,0.4726159474441687) " id="svg_15">
   <path id="svg_17" d="m63.353879,11.797224c6.12,-9.11 17.96,-14.24 28.78,-11.9c7.28,1.38 13.66,5.93 18.04,11.81c-0.02,8.37 -0.02,16.74 0,25.1c9.26,-0.12 18.56,0.43 27.78,-0.64c-6.67,44.58 0.22,90.98 19.21,131.84l0,0c-49.92,0.36 -99.83,0.84 -149.75,1.06c8.83,-16.59 15.89,-34.17 19.96,-52.54c5.98,-26.1 6.32,-53.37 1.65,-79.7c11.38,-0.03 22.75,0 34.13,-0.02c0.17,-8.33 -0.28,-16.7 0.2,-25.01m8.05,3.09c0.03,7.31 0,14.62 0.02,21.93c10.16,-0.01 20.32,0 30.49,0c-0.08,-7.3 0.15,-14.6 -0.1,-21.89c-3.43,-4.35 -9.03,-7.09 -14.59,-7.35c-6.09,-0.23 -11.75,2.98 -15.82,7.31m-32.73,30.17c5.26,39.23 -0.8,79.96 -17.81,115.74c41.22,-0.42 82.44,-0.51 123.66,-1c-14.51,-36.21 -20.07,-75.92 -16.05,-114.72c-6.1,-0.02 -12.21,-0.01 -18.31,0c0,5.49 0,10.99 0,16.49c-2.75,0 -5.5,0 -8.25,0c0,-5.49 -0.01,-10.98 0.01,-16.47c-10.14,-0.08 -20.29,0.04 -30.43,-0.07c-0.17,5.51 -0.04,11.02 -0.08,16.53c-2.75,0.01 -5.5,0.01 -8.25,0.01c-0.01,-5.5 0,-11 0,-16.49c-8.16,-0.02 -16.33,0.01 -24.49,-0.02z" fill="#fff"/>
  </g>
  <g id="svg_18"/>
 </g>
</svg>