<?xml version="1.0" encoding="UTF-8" ?>
<!DOCTYPE svg PUBLIC "-//W3C//DTD SVG 1.1//EN" "http://www.w3.org/Graphics/SVG/1.1/DTD/svg11.dtd">
<svg width="204pt" height="167pt" viewBox="0 0 204 167" version="1.1" xmlns="http://www.w3.org/2000/svg">
<g id="#000000ff">
<path fill="#fff" opacity="1.00" d=" M 27.69 6.73 C 44.51 -2.22 65.89 -1.89 82.39 7.65 C 89.86 11.81 95.62 18.25 101.85 23.96 C 107.44 19.19 112.30 13.54 118.48 9.50 C 131.37 0.86 147.94 -1.79 162.98 1.80 C 175.45 4.69 186.94 12.06 194.39 22.52 C 201.75 32.63 204.95 45.72 202.91 58.07 C 201.23 69.48 195.06 79.97 186.46 87.56 C 158.25 113.89 130.14 140.32 101.92 166.64 C 75.44 141.88 48.98 117.10 22.52 92.32 C 17.21 87.34 11.55 82.52 7.74 76.22 C 0.14 64.37 -1.58 49.11 2.72 35.75 C 6.76 23.26 16.14 12.82 27.69 6.73 M 24.13 19.17 C 13.73 27.76 7.68 41.60 9.33 55.09 C 10.42 65.06 15.50 74.39 22.93 81.07 C 49.27 105.74 75.59 130.43 101.98 155.05 C 127.93 130.65 153.98 106.35 179.97 82.00 C 186.83 76.06 191.98 68.00 193.85 59.08 C 196.00 49.74 194.38 39.68 189.78 31.31 C 183.63 20.11 172.30 12.07 159.85 9.45 C 145.78 6.30 130.32 9.96 119.36 19.36 C 113.51 24.71 107.76 30.16 101.98 35.59 C 95.53 29.85 89.52 23.62 82.91 18.07 C 66.20 4.77 40.32 5.23 24.13 19.17 Z" />
</g>
</svg>
