<svg width="32" height="32" xmlns="http://www.w3.org/2000/svg">

 <g>
  <title>background</title>
  <rect fill="none" id="canvas_background" height="34" width="34" y="-1" x="-1"/>
 </g>
 <g>
  <title>Layer 1</title>
  <g transform="matrix(0.18327867176222906,0,0,0.18327867176222906,0.5274114217468018,0.5876294574829863) " id="svg_7">
   <path id="svg_9" d="m71.735419,-1.59514c10.28,-2.22 21.33,-0.9 30.75,3.84c10.37,5.17 18.7,14.36 22.69,25.26c4.69,12.44 3.7,26.9 -2.71,38.55c-6.62,12.39 -19.2,21.33 -33.04,23.59c-8.55,1.24 -17.49,0.54 -25.5,-2.84c-11.95,-4.85 -21.63,-14.93 -25.97,-27.08c-4.29,-11.93 -3.58,-25.64 2.23,-36.94c6.16,-12.3 18.07,-21.56 31.55,-24.38m2.05,8.07c-9.61,2.03 -18.37,7.92 -23.81,16.11c-6.33,9.25 -8.21,21.41 -4.88,32.13c2.79,9.6 9.63,17.88 18.39,22.64c9.59,5.27 21.47,6.09 31.68,2.12c15.37,-5.61 25.97,-21.97 24.57,-38.33c-0.76,-11.41 -7.02,-22.31 -16.47,-28.74c-8.48,-5.87 -19.39,-8.18 -29.48,-5.93z" fill="#fff"/>
   <path id="svg_10" d="m77.785419,92.48486c19.73,-0.52 40.13,2.41 57.69,11.87c8.07,4.5 15.78,10.92 18.99,19.87c2.77,7.7 0.88,16.55 -4.12,22.9c-6.91,8.98 -17.41,14.31 -27.89,18.02c-21.73,7.25 -45.43,7.97 -67.8,3.37c-12.9,-2.88 -25.86,-7.65 -35.78,-16.66c-6.48,-5.93 -10.97,-14.8 -9.33,-23.74c1.68,-10.13 9.75,-17.72 18.21,-22.75c15.09,-8.8 32.75,-12.19 50.03,-12.88m-11.81,9.24c-14.12,1.99 -28.58,5.95 -39.9,15.01c-5.32,4.34 -9.94,11.13 -8.24,18.31c1.87,7.42 8.2,12.59 14.48,16.38c15.45,8.82 33.58,11.62 51.16,11.74c18.34,-0.46 37.54,-3.63 52.96,-14.2c6.41,-4.55 12.8,-12.06 10.63,-20.49c-2.74,-9.32 -11.63,-15 -19.91,-19c-19.06,-8.5 -40.62,-10.26 -61.18,-7.75z" fill="#fff"/>
  </g>
  <g id="svg_11"/>
 </g>
</svg>